<?xml version="1.0" encoding="UTF-8" standalone="no"?>
<svg
   xmlns:x="adobe:ns:meta/"
   xmlns:dc="http://purl.org/dc/elements/1.1/"
   xmlns:cc="http://creativecommons.org/ns#"
   xmlns:rdf="http://www.w3.org/1999/02/22-rdf-syntax-ns#"
   xmlns:svg="http://www.w3.org/2000/svg"
   xmlns="http://www.w3.org/2000/svg"
   xmlns:sodipodi="http://sodipodi.sourceforge.net/DTD/sodipodi-0.dtd"
   xmlns:inkscape="http://www.inkscape.org/namespaces/inkscape"
   id="Grupo_1_copia_2"
   data-name="Grupo 1 copia 2"
   width="192"
   height="192"
   viewBox="0 0 192 192"
   version="1.1"
   sodipodi:docname="logo-costos.svg"
   inkscape:version="1.0.1 (3bc2e813f5, 2020-09-07, custom)">
  <sodipodi:namedview
     pagecolor="#ffffff"
     bordercolor="#666666"
     borderopacity="1"
     objecttolerance="10"
     gridtolerance="10"
     guidetolerance="10"
     inkscape:pageopacity="0"
     inkscape:pageshadow="2"
     inkscape:window-width="1366"
     inkscape:window-height="715"
     id="namedview17"
     showgrid="false"
     inkscape:zoom="2"
     inkscape:cx="90.549864"
     inkscape:cy="107.95112"
     inkscape:window-x="0"
     inkscape:window-y="0"
     inkscape:window-maximized="1"
     inkscape:current-layer="Grupo_1_copia_2"
     inkscape:document-rotation="0" />
  <metadata
     id="metadata2">
<?xpacket begin="﻿" id="W5M0MpCehiHzreSzNTczkc9d"?>    <x:xmpmeta
       x:xmptk="Adobe XMP Core 5.6-c142 79.160924, 2017/07/13-01:06:39        ">
      <metadata>
        <rdf:RDF>
          <rdf:Description
             rdf:about="" />
          <cc:Work
             rdf:about="">
            <dc:format>image/svg+xml</dc:format>
            <dc:type
               rdf:resource="http://purl.org/dc/dcmitype/StillImage" />
          </cc:Work>
        </rdf:RDF>
      </metadata>
    </x:xmpmeta>
<?xpacket end="w"?>  </metadata>
  <defs
     id="defs6">
    <style
       id="style4">
      .cls-1 {
        fill: #aa2c00;
      }

      .cls-2 {
        fill: #211915;
        opacity: 0.23;
      }

      .cls-2, .cls-3, .cls-5 {
        fill-rule: evenodd;
      }

      .cls-3 {
        fill: #fff;
      }

      .cls-4 {
        fill: #c4c4c4;
      }

      .cls-5 {
        fill: #ebd017;
      }
    </style>
  </defs>
  <circle
     id="Forma_1_copia"
     data-name="Forma 1 copia"
     class="cls-1"
     cx="96.015999"
     cy="96.046997"
     style="fill:#e74a3b;fill-opacity:1;stroke:none;stroke-width:0.755905"
     r="96.015999" />
  <path
     id="Forma_7"
     data-name="Forma 7"
     class="cls-2"
     d="M98,97l66-25s15.4,24.352,26.267,42.443a96.05,96.05,0,0,1-94.257,77.62c-7.007,0-20.42-2.176-20.42-2.176L49,150Z" />
  <path
     id="Forma_6"
     data-name="Forma 6"
     class="cls-3"
     d="M68.84,32h40a27,27,0,0,1,27,27v74a27,27,0,0,1-27,27h-40a27,27,0,0,1-27-27V59Z" />
  <rect
     id="Rectángulo_redondeado_1"
     data-name="Rectángulo redondeado 1"
     class="cls-4"
     x="70"
     y="67"
     width="30"
     height="9"
     rx="3"
     ry="4.5"
     style="stroke-width:0.816497" />
  <rect
     id="Rectángulo_redondeado_1_copia"
     data-name="Rectángulo redondeado 1 copia"
     class="cls-4"
     x="70"
     y="86"
     width="30"
     height="9"
     rx="3"
     ry="4.5"
     style="stroke-width:0.816497" />
  <rect
     id="Rectángulo_redondeado_1_copia_2"
     data-name="Rectángulo redondeado 1 copia 2"
     class="cls-4"
     x="70"
     y="104"
     width="30"
     height="9"
     rx="3"
     ry="4.5"
     style="stroke-width:0.816497" />
  <rect
     id="Rectángulo_redondeado_1_copia_3"
     data-name="Rectángulo redondeado 1 copia 3"
     class="cls-4"
     x="70"
     y="123"
     width="54"
     height="9"
     rx="3.5217383"
     ry="4.5"
     style="stroke-width:0.884649" />
  <path
     id="Forma_4_copia_2"
     data-name="Forma 4 copia 2"
     class="cls-5"
     d="m 725.36464,288.01659 h -10.521 l 0.008,23.35 -10.924,-8.864 -11.669,8.864 -0.057,-23.35 h -9.71 v -12.562 l -8.88,-8.879 8.88,-8.879 v -12.554 h 12.557 l 8.879,-8.879 8.88,8.879 h 12.557 v 12.558 l 8.879,8.879 -8.879,8.875 z" />
  <text
     xml:space="preserve"
     style="font-style:normal;font-weight:normal;font-size:40px;line-height:1.25;font-family:sans-serif;fill:#000000;fill-opacity:1;stroke:none"
     x="48.541973"
     y="69.502563"
     id="text905"><tspan
       sodipodi:role="line"
       id="tspan903"
       x="48.541973"
       y="69.502563" /></text>
  <g
     aria-label="✓"
     id="text901-7"
     style="font-style:normal;font-variant:normal;font-weight:normal;font-stretch:normal;font-size:40px;line-height:1.25;font-family:'Source Code Pro';-inkscape-font-specification:'Source Code Pro, Normal';font-variant-ligatures:normal;font-variant-caps:normal;font-variant-numeric:normal;font-variant-east-asian:normal;fill:#666666;fill-opacity:1;stroke:#666666;stroke-opacity:1">
    <path
       d="m 53.210043,97.539999 1.72,-0.2 c 1.52,-5.4 4.42,-9.94 7.58,-12.88 l -1.08,-1 c -3.12,3.08 -5.98,7.98 -7.4,12.72 h -0.08 c -0.62,-1.78 -1.54,-3.64 -2.64,-5.3 l -1.12,0.76 c 1.26,1.82 2.22,3.7 3.02,5.9 z"
       style="font-style:normal;font-variant:normal;font-weight:normal;font-stretch:normal;font-size:20px;font-family:'Source Code Pro';-inkscape-font-specification:'Source Code Pro, Normal';font-variant-ligatures:normal;font-variant-caps:normal;font-variant-numeric:normal;font-variant-east-asian:normal;fill:#666666;fill-opacity:1;stroke:#666666;stroke-opacity:1"
       id="path1264" />
  </g>
  <g
     aria-label="✓"
     id="text901-7-1"
     style="font-style:normal;font-variant:normal;font-weight:normal;font-stretch:normal;font-size:40px;line-height:1.25;font-family:'Source Code Pro';-inkscape-font-specification:'Source Code Pro, Normal';font-variant-ligatures:normal;font-variant-caps:normal;font-variant-numeric:normal;font-variant-east-asian:normal;fill:#666666;fill-opacity:1;stroke:#666666;stroke-opacity:1">
    <path
       d="m 53.210043,78.539999 1.72,-0.2 c 1.52,-5.4 4.42,-9.94 7.58,-12.88 l -1.08,-1 c -3.12,3.08 -5.98,7.98 -7.4,12.72 h -0.08 c -0.62,-1.78 -1.54,-3.64 -2.64,-5.3 l -1.12,0.76 c 1.26,1.82 2.22,3.7 3.02,5.9 z"
       style="font-style:normal;font-variant:normal;font-weight:normal;font-stretch:normal;font-size:20px;font-family:'Source Code Pro';-inkscape-font-specification:'Source Code Pro, Normal';font-variant-ligatures:normal;font-variant-caps:normal;font-variant-numeric:normal;font-variant-east-asian:normal;fill:#666666;fill-opacity:1;stroke:#666666;stroke-opacity:1"
       id="path1261" />
  </g>
  <g
     aria-label="✓"
     id="text901-7-9"
     style="font-style:normal;font-variant:normal;font-weight:normal;font-stretch:normal;font-size:40px;line-height:1.25;font-family:'Source Code Pro';-inkscape-font-specification:'Source Code Pro, Normal';font-variant-ligatures:normal;font-variant-caps:normal;font-variant-numeric:normal;font-variant-east-asian:normal;fill:#666666;fill-opacity:1;stroke:#666666;stroke-opacity:1">
    <path
       d="m 53.210043,115.54 1.72,-0.2 c 1.52,-5.4 4.42,-9.94 7.58,-12.88 l -1.08,-1 c -3.12,3.08 -5.98,7.98 -7.4,12.72 h -0.08 c -0.62,-1.78 -1.54,-3.64 -2.64,-5.3 l -1.12,0.76 c 1.26,1.82 2.22,3.7 3.02,5.9 z"
       style="font-style:normal;font-variant:normal;font-weight:normal;font-stretch:normal;font-size:20px;font-family:'Source Code Pro';-inkscape-font-specification:'Source Code Pro, Normal';font-variant-ligatures:normal;font-variant-caps:normal;font-variant-numeric:normal;font-variant-east-asian:normal;fill:#666666;fill-opacity:1;stroke:#666666;stroke-opacity:1"
       id="path1267" />
  </g>
  <g
     aria-label="✓"
     id="text901-7-13"
     style="font-style:normal;font-variant:normal;font-weight:normal;font-stretch:normal;font-size:40px;line-height:1.25;font-family:'Source Code Pro';-inkscape-font-specification:'Source Code Pro, Normal';font-variant-ligatures:normal;font-variant-caps:normal;font-variant-numeric:normal;font-variant-east-asian:normal;fill:#666666;fill-opacity:1;stroke:#666666;stroke-opacity:1">
    <path
       d="m 53.210043,134.54 1.72,-0.2 c 1.52,-5.4 4.42,-9.94 7.58,-12.88 l -1.08,-1 c -3.12,3.08 -5.98,7.98 -7.4,12.72 h -0.08 c -0.62,-1.78 -1.54,-3.64 -2.64,-5.3 l -1.12,0.76 c 1.26,1.82 2.22,3.7 3.02,5.9 z"
       style="font-style:normal;font-variant:normal;font-weight:normal;font-stretch:normal;font-size:20px;font-family:'Source Code Pro';-inkscape-font-specification:'Source Code Pro, Normal';font-variant-ligatures:normal;font-variant-caps:normal;font-variant-numeric:normal;font-variant-east-asian:normal;fill:#666666;fill-opacity:1;stroke:#666666;stroke-opacity:1"
       id="path1270" />
  </g>
  <path
     style="fill:#e74a3b;fill-opacity:1;stroke:none;stroke-width:0.737561;stroke-miterlimit:4;stroke-dasharray:none;stroke-opacity:1"
     d="m 735.2124,269.89451 c -10.3763,-1.6535 -18.75328,-8.75738 -22.04319,-18.69337 -1.87497,-5.66248 -1.87003,-11.55862 0.0135,-17.22136 2.27041,-6.82309 7.42777,-12.72426 13.94919,-15.96109 8.87176,-4.40342 19.17633,-3.71051 27.56406,1.85349 2.24242,1.48756 5.96797,5.19496 7.38155,7.34573 2.0704,3.15004 3.48204,6.4732 4.2526,10.0111 0.58312,2.67691 0.58155,8.21368 -0.003,10.86691 -0.5774,2.62089 -1.19697,4.36952 -2.43139,6.86323 -3.86168,7.80043 -11.38325,13.36369 -20.07531,14.84866 -2.43829,0.41654 -6.29544,0.45539 -8.60904,0.0868 z m 5.81042,-9.47192 v -2.37047 l 0.96834,-0.0999 c 4.09412,-0.42288 8.17143,-3.9854 8.97354,-7.84061 0.60019,-2.88516 -0.0571,-5.94777 -1.64659,-7.67084 -1.46403,-1.58718 -3.44094,-2.55184 -7.82454,-3.81798 -2.91585,-0.84223 -4.65114,-1.57053 -5.2356,-2.1975 -0.5985,-0.64192 -0.54063,-1.66523 0.13193,-2.33738 0.72487,-0.72431 1.68169,-0.97141 3.76164,-0.97141 2.05666,0 3.52033,0.38501 4.79482,1.26128 l 0.84357,0.57993 1.81274,-1.95014 c 0.99715,-1.07259 1.83849,-2.0197 1.86965,-2.10471 0.0874,-0.23588 -1.78664,-1.5831 -2.92176,-2.10116 -1.28074,-0.58451 -2.90197,-1.01297 -4.375,-1.15621 l -1.15274,-0.11211 v -2.46177 -2.46175 h -1.75239 -1.75241 v 2.46443 2.46443 l -1.15001,0.2261 c -3.42796,0.67395 -5.86544,2.92112 -6.60444,6.08899 -0.2867,1.2292 -0.28429,4.6729 0.004,5.43764 0.58856,1.56174 1.81929,2.67211 4.37309,3.94561 1.41186,0.704 5.1112,2.03116 7.49003,2.68712 0.80764,0.22269 1.29264,0.51009 1.98294,1.17493 0.8885,0.85579 0.9137,0.9096 0.9137,1.94603 0,1.26147 -0.41041,2.23776 -1.0854,2.58194 -2.57671,1.31378 -8.34586,0.49443 -10.15254,-1.44184 -0.24574,-0.26361 -0.52551,-0.47929 -0.62159,-0.47929 -0.27311,0 -4.18805,3.70004 -4.18805,3.95834 0,0.46685 1.89298,1.9865 3.26188,2.61851 1.38568,0.63977 4.49731,1.53354 5.33896,1.53354 h 0.43737 v 2.48842 2.48841 h 1.75241 1.75238 z"
     id="path1126-4" />
  <circle
     style="fill:#4e73ff;fill-opacity:1;stroke:none;stroke-width:0.982514;stroke-miterlimit:4;stroke-dasharray:none;stroke-opacity:1"
     id="path1200"
     cx="135.838"
     cy="82.349998"
     r="30" />
  <g
     aria-label="$"
     id="text901-3"
     style="font-style:normal;font-variant:normal;font-weight:normal;font-stretch:normal;font-size:66.6667px;line-height:1.25;font-family:'Source Code Pro';-inkscape-font-specification:'Source Code Pro, Normal';font-variant-ligatures:normal;font-variant-caps:normal;font-variant-numeric:normal;font-variant-east-asian:normal;fill:#ffffff;fill-opacity:1;stroke:none;stroke-width:4;stroke-miterlimit:4;stroke-dasharray:none;stroke-opacity:1">
    <path
       d="m 123.59801,93.149996 c 2.66666,2.346665 6.71999,3.839997 10.18666,4.21333 v 7.786664 h 5.22666 v -7.946664 c 5.92,-1.013332 9.06666,-4.586663 9.06666,-9.066661 0,-9.706661 -15.51999,-9.226661 -15.51999,-13.013325 0,-1.599999 1.28,-2.453332 3.68,-2.453332 2.93333,0 4.90666,0.906666 7.41333,2.666665 l 3.89333,-4.479998 c -2.18666,-2.239998 -4.85333,-3.893331 -8.53333,-4.37333 v -6.933329 h -5.22666 v 6.986662 c -5.38666,0.853333 -8.74666,4.106664 -8.74666,8.693328 0,9.813328 15.57332,9.013328 15.57332,13.493325 0,1.493333 -1.38666,2.399999 -3.94666,2.399999 -3.36,0 -6.29333,-1.226666 -9.65333,-3.306665 z"
       style="font-style:normal;font-variant:normal;font-weight:bold;font-stretch:normal;font-size:53.3333px;font-family:'Source Code Pro';-inkscape-font-specification:'Source Code Pro, Bold';font-variant-ligatures:normal;font-variant-caps:normal;font-variant-numeric:normal;font-variant-east-asian:normal;fill:#ffffff;fill-opacity:1;stroke:none;stroke-width:4;stroke-miterlimit:4;stroke-dasharray:none;stroke-opacity:1"
       id="path1258" />
  </g>
</svg>
